<svg width="1052" height="560" viewBox="0 0 1052 560" fill="none" xmlns="http://www.w3.org/2000/svg">
<g opacity="0.03">
<path d="M-183.104 658.596C-172.833 648.326 -172.833 631.674 -183.104 621.403C-193.374 611.132 -210.026 611.132 -220.297 621.403C-230.568 631.674 -230.568 648.326 -220.297 658.596C-210.026 668.867 -193.374 668.867 -183.104 658.596Z" fill="#215B80"/>
<path d="M-127.31 714.392C-117.039 704.122 -117.039 687.47 -127.31 677.199C-137.581 666.928 -154.233 666.928 -164.503 677.199C-174.774 687.47 -174.774 704.122 -164.503 714.393C-154.233 724.663 -137.581 724.663 -127.31 714.392Z" fill="#215B80"/>
<path d="M-71.5225 732.979C-61.2519 743.25 -61.2518 759.902 -71.5223 770.173C-81.7932 780.444 -98.4452 780.444 -108.716 770.173C-118.987 759.902 -118.987 743.25 -108.716 732.979C-98.4452 722.709 -81.7932 722.709 -71.5225 732.979Z" fill="#215B80"/>
<path d="M-127.312 602.804C-117.041 592.533 -117.041 575.881 -127.312 565.61C-137.582 555.339 -154.234 555.339 -164.505 565.61C-174.776 575.881 -174.776 592.533 -164.505 602.804C-154.234 613.075 -137.582 613.075 -127.312 602.804Z" fill="#215B80"/>
<path d="M-71.5216 621.403C-61.251 631.674 -61.2509 648.326 -71.5214 658.596C-81.7922 668.867 -98.4443 668.867 -108.715 658.596C-118.986 648.326 -118.986 631.674 -108.715 621.403C-98.4443 611.132 -81.7923 611.132 -71.5216 621.403Z" fill="#215B80"/>
<path d="M-15.7331 714.391C-5.46255 704.12 -5.46262 687.468 -15.7333 677.197C-26.004 666.926 -42.656 666.926 -52.9266 677.197C-63.1974 687.468 -63.1973 704.12 -52.9267 714.391C-42.656 724.661 -26.0039 724.662 -15.7331 714.391Z" fill="#215B80"/>
<path d="M-71.5216 509.827C-61.251 520.098 -61.2509 536.75 -71.5215 547.021C-81.7923 557.291 -98.4443 557.291 -108.715 547.021C-118.986 536.75 -118.986 520.098 -108.715 509.827C-98.4443 499.556 -81.7923 499.556 -71.5216 509.827Z" fill="#215B80"/>
<path d="M-15.7304 602.805C-5.45982 592.534 -5.45995 575.882 -15.7306 565.611C-26.0013 555.34 -42.6533 555.34 -52.9239 565.611C-63.1947 575.882 -63.1946 592.534 -52.9239 602.805C-42.6533 613.076 -26.0012 613.076 -15.7304 602.805Z" fill="#215B80"/>
<path d="M40.0586 621.405C50.3293 631.675 50.3294 648.328 40.0588 658.598C29.788 668.869 13.136 668.869 2.8653 658.598C-7.4054 648.327 -7.40546 631.675 2.86534 621.404C13.1359 611.134 29.7879 611.134 40.0586 621.405Z" fill="#215B80"/>
<path d="M-15.7305 491.222C-5.45988 480.951 -5.45995 464.299 -15.7306 454.028C-26.0013 443.757 -42.6533 443.757 -52.9239 454.028C-63.1947 464.299 -63.1946 480.951 -52.9239 491.222C-42.6533 501.493 -26.0013 501.493 -15.7305 491.222Z" fill="#215B80"/>
<path d="M40.0633 547.018C50.3339 536.747 50.3338 520.095 40.0632 509.824C29.7925 499.553 13.1405 499.553 2.86989 509.824C-7.40091 520.095 -7.40085 536.747 2.86984 547.018C13.1405 557.289 29.7925 557.289 40.0633 547.018Z" fill="#215B80"/>
<path d="M95.8506 565.605C106.121 575.876 106.121 592.528 95.8507 602.799C85.5799 613.069 68.9279 613.069 58.6572 602.799C48.3865 592.528 48.3865 575.876 58.6573 565.605C68.9279 555.334 85.5799 555.334 95.8506 565.605Z" fill="#215B80"/>
<path d="M40.0615 435.429C50.3321 425.159 50.332 408.506 40.0613 398.236C29.7906 387.965 13.1387 387.965 2.86807 398.236C-7.40273 408.506 -7.40266 425.159 2.86803 435.429C13.1387 445.7 29.7907 445.7 40.0615 435.429Z" fill="#215B80"/>
<path d="M95.8515 454.028C106.122 464.299 106.122 480.951 95.8516 491.222C85.5808 501.493 68.9288 501.493 58.6581 491.222C48.3875 480.951 48.3874 464.299 58.6582 454.028C68.9288 443.757 85.5808 443.757 95.8515 454.028Z" fill="#215B80"/>
<path d="M151.64 547.016C161.91 536.745 161.91 520.093 151.64 509.822C141.369 499.552 124.717 499.552 114.447 509.822C104.176 520.093 104.176 536.745 114.446 547.016C124.717 557.287 141.369 557.287 151.64 547.016Z" fill="#215B80"/>
<path d="M95.8515 342.452C106.122 352.723 106.122 369.375 95.8516 379.646C85.5807 389.917 68.9288 389.917 58.6581 379.646C48.3875 369.375 48.3874 352.723 58.6582 342.452C68.9288 332.181 85.5808 332.182 95.8515 342.452Z" fill="#215B80"/>
<path d="M151.643 435.43C161.913 425.16 161.913 408.507 151.642 398.237C141.372 387.966 124.72 387.966 114.449 398.236C104.178 408.507 104.178 425.16 114.449 435.43C124.72 445.701 141.372 445.701 151.643 435.43Z" fill="#215B80"/>
<path d="M207.432 454.03C217.702 464.301 217.702 480.953 207.432 491.224C197.161 501.495 180.509 501.494 170.238 491.224C159.968 480.953 159.968 464.301 170.238 454.03C180.509 443.759 197.161 443.759 207.432 454.03Z" fill="#215B80"/>
<path d="M-15.7304 825.971C-5.45984 815.7 -5.45996 799.048 -15.7307 788.777C-26.0013 778.507 -42.6533 778.506 -52.9239 788.777C-63.1947 799.048 -63.1946 815.7 -52.924 825.971C-42.6533 836.242 -26.0012 836.242 -15.7304 825.971Z" fill="#215B80"/>
<path d="M40.0633 881.767C50.3339 871.496 50.3338 854.844 40.0631 844.573C29.7925 834.303 13.1404 834.303 2.86986 844.573C-7.40094 854.844 -7.40082 871.496 2.86975 881.767C13.1404 892.038 29.7925 892.038 40.0633 881.767Z" fill="#215B80"/>
<path d="M95.8505 900.354C106.121 910.625 106.121 927.277 95.8507 937.548C85.5799 947.819 68.9278 947.818 58.6571 937.548C48.3864 927.277 48.3864 910.625 58.6573 900.354C68.9278 890.083 85.5798 890.083 95.8505 900.354Z" fill="#215B80"/>
<path d="M40.0615 770.179C50.3321 759.908 50.332 743.256 40.0613 732.985C29.7906 722.714 13.1387 722.714 2.86807 732.985C-7.40273 743.256 -7.40269 759.908 2.86794 770.179C13.1386 780.449 29.7907 780.449 40.0615 770.179Z" fill="#215B80"/>
<path d="M95.8514 788.777C106.122 799.048 106.122 815.7 95.8516 825.971C85.5808 836.242 68.9287 836.242 58.6581 825.971C48.3875 815.7 48.3874 799.048 58.6582 788.777C68.9287 778.506 85.5808 778.507 95.8514 788.777Z" fill="#215B80"/>
<path d="M151.64 881.765C161.91 871.495 161.91 854.842 151.64 844.572C141.369 834.301 124.717 834.301 114.446 844.571C104.176 854.842 104.176 871.495 114.446 881.765C124.717 892.036 141.369 892.036 151.64 881.765Z" fill="#215B80"/>
<path d="M95.8514 677.202C106.122 687.472 106.122 704.125 95.8516 714.395C85.5808 724.666 68.9287 724.666 58.6581 714.395C48.3874 704.124 48.3874 687.472 58.6582 677.201C68.9287 666.931 85.5808 666.931 95.8514 677.202Z" fill="#215B80"/>
<path d="M151.643 770.179C161.913 759.909 161.913 743.257 151.642 732.986C141.372 722.715 124.72 722.715 114.449 732.986C104.178 743.257 104.178 759.909 114.449 770.179C124.72 780.45 141.372 780.45 151.643 770.179Z" fill="#215B80"/>
<path d="M207.432 788.779C217.702 799.05 217.702 815.702 207.432 825.973C197.161 836.244 180.509 836.244 170.238 825.973C159.968 815.702 159.968 799.05 170.238 788.779C180.509 778.508 197.161 778.508 207.432 788.779Z" fill="#215B80"/>
<path d="M151.643 658.596C161.913 648.326 161.913 631.673 151.642 621.403C141.372 611.132 124.72 611.132 114.449 621.403C104.178 631.673 104.178 648.326 114.449 658.596C124.72 668.867 141.372 668.867 151.643 658.596Z" fill="#215B80"/>
<path d="M207.436 714.392C217.707 704.122 217.707 687.47 207.436 677.199C197.166 666.928 180.514 666.928 170.243 677.199C159.972 687.47 159.972 704.122 170.243 714.392C180.514 724.663 197.166 724.663 207.436 714.392Z" fill="#215B80"/>
<path d="M263.224 732.979C273.494 743.25 273.494 759.902 263.224 770.173C252.953 780.444 236.301 780.444 226.03 770.173C215.76 759.902 215.76 743.25 226.03 732.979C236.301 722.709 252.953 722.709 263.224 732.979Z" fill="#215B80"/>
<path d="M207.435 602.804C217.705 592.533 217.705 575.881 207.434 565.61C197.164 555.34 180.512 555.339 170.241 565.61C159.97 575.881 159.97 592.533 170.241 602.804C180.512 613.075 197.164 613.075 207.435 602.804Z" fill="#215B80"/>
<path d="M263.224 621.403C273.495 631.673 273.495 648.326 263.225 658.596C252.954 668.867 236.302 668.867 226.031 658.596C215.761 648.326 215.76 631.673 226.031 621.403C236.302 611.132 252.954 611.132 263.224 621.403Z" fill="#215B80"/>
<path d="M319.013 714.391C329.284 704.12 329.283 687.468 319.013 677.197C308.742 666.926 292.09 666.926 281.82 677.197C271.549 687.468 271.549 704.12 281.82 714.391C292.09 724.661 308.742 724.662 319.013 714.391Z" fill="#215B80"/>
<path d="M263.224 509.827C273.495 520.098 273.495 536.75 263.225 547.021C252.954 557.292 236.302 557.291 226.031 547.021C215.76 536.75 215.76 520.098 226.031 509.827C236.302 499.556 252.954 499.556 263.224 509.827Z" fill="#215B80"/>
<path d="M319.016 602.805C329.286 592.534 329.286 575.882 319.015 565.611C308.745 555.34 292.093 555.34 281.822 565.611C271.551 575.882 271.552 592.534 281.822 602.805C292.093 613.076 308.745 613.076 319.016 602.805Z" fill="#215B80"/>
<path d="M374.805 621.405C385.075 631.675 385.076 648.327 374.805 658.598C364.534 668.869 347.882 668.869 337.611 658.598C327.341 648.328 327.341 631.675 337.611 621.404C347.882 611.134 364.534 611.134 374.805 621.405Z" fill="#215B80"/>
<path d="M151.643 993.346C161.913 983.075 161.913 966.423 151.642 956.152C141.372 945.881 124.72 945.881 114.449 956.152C104.178 966.423 104.178 983.075 114.449 993.346C124.72 1003.62 141.372 1003.62 151.643 993.346Z" fill="#215B80"/>
<path d="M207.436 1049.14C217.707 1038.87 217.707 1022.22 207.436 1011.95C197.166 1001.68 180.513 1001.68 170.243 1011.95C159.972 1022.22 159.972 1038.87 170.243 1049.14C180.514 1059.41 197.166 1059.41 207.436 1049.14Z" fill="#215B80"/>
<path d="M263.224 1067.73C273.494 1078 273.494 1094.65 263.224 1104.92C252.953 1115.19 236.301 1115.19 226.03 1104.92C215.759 1094.65 215.759 1078 226.03 1067.73C236.301 1057.46 252.953 1057.46 263.224 1067.73Z" fill="#215B80"/>
<path d="M207.435 937.553C217.705 927.282 217.705 910.63 207.434 900.359C197.164 890.089 180.512 890.089 170.241 900.359C159.97 910.63 159.97 927.282 170.241 937.553C180.512 947.824 197.164 947.824 207.435 937.553Z" fill="#215B80"/>
<path d="M263.224 956.152C273.495 966.423 273.495 983.075 263.225 993.346C252.954 1003.62 236.302 1003.62 226.031 993.346C215.76 983.075 215.76 966.423 226.031 956.152C236.302 945.881 252.954 945.881 263.224 956.152Z" fill="#215B80"/>
<path d="M319.013 1049.14C329.284 1038.87 329.283 1022.22 319.013 1011.95C308.742 1001.68 292.09 1001.68 281.82 1011.95C271.549 1022.22 271.549 1038.87 281.82 1049.14C292.09 1059.41 308.742 1059.41 319.013 1049.14Z" fill="#215B80"/>
<path d="M263.224 844.576C273.495 854.847 273.495 871.499 263.225 881.77C252.954 892.041 236.302 892.041 226.031 881.77C215.76 871.499 215.76 854.847 226.031 844.576C236.302 834.305 252.954 834.305 263.224 844.576Z" fill="#215B80"/>
<path d="M319.016 937.554C329.286 927.283 329.286 910.631 319.015 900.36C308.745 890.09 292.093 890.09 281.822 900.36C271.551 910.631 271.552 927.283 281.822 937.554C292.093 947.825 308.745 947.825 319.016 937.554Z" fill="#215B80"/>
<path d="M374.805 956.154C385.075 966.424 385.075 983.077 374.805 993.347C364.534 1003.62 347.882 1003.62 337.611 993.347C327.341 983.077 327.341 966.424 337.611 956.154C347.882 945.883 364.534 945.883 374.805 956.154Z" fill="#215B80"/>
<path d="M319.016 825.971C329.286 815.7 329.286 799.048 319.015 788.777C308.745 778.506 292.093 778.506 281.822 788.777C271.551 799.048 271.551 815.7 281.822 825.971C292.093 836.242 308.745 836.242 319.016 825.971Z" fill="#215B80"/>
<path d="M374.809 881.767C385.08 871.496 385.08 854.844 374.809 844.573C364.539 834.303 347.887 834.303 337.616 844.573C327.345 854.844 327.345 871.496 337.616 881.767C347.887 892.038 364.539 892.038 374.809 881.767Z" fill="#215B80"/>
<path d="M430.597 900.354C440.867 910.625 440.867 927.277 430.597 937.548C420.326 947.819 403.674 947.818 393.403 937.548C383.133 927.277 383.133 910.625 393.403 900.354C403.674 890.083 420.326 890.083 430.597 900.354Z" fill="#215B80"/>
<path d="M374.808 770.179C385.078 759.908 385.078 743.256 374.807 732.985C364.537 722.714 347.885 722.714 337.614 732.985C327.343 743.256 327.343 759.908 337.614 770.179C347.885 780.449 364.537 780.449 374.808 770.179Z" fill="#215B80"/>
<path d="M430.598 788.777C440.868 799.048 440.868 815.7 430.598 825.971C420.327 836.242 403.675 836.242 393.404 825.971C383.134 815.7 383.133 799.048 393.404 788.777C403.675 778.506 420.327 778.507 430.598 788.777Z" fill="#215B80"/>
<path d="M486.386 881.765C496.657 871.495 496.656 854.842 486.386 844.572C476.115 834.301 459.463 834.301 449.193 844.571C438.922 854.842 438.922 871.495 449.193 881.765C459.463 892.036 476.115 892.036 486.386 881.765Z" fill="#215B80"/>
<path d="M430.598 677.201C440.868 687.472 440.868 704.124 430.598 714.395C420.327 724.666 403.675 724.666 393.404 714.395C383.133 704.124 383.133 687.472 393.404 677.201C403.675 666.931 420.327 666.931 430.598 677.201Z" fill="#215B80"/>
<path d="M486.389 770.179C496.659 759.909 496.659 743.257 486.389 732.986C476.118 722.715 459.466 722.715 449.195 732.986C438.924 743.257 438.925 759.909 449.195 770.179C459.466 780.45 476.118 780.45 486.389 770.179Z" fill="#215B80"/>
<path d="M542.178 788.779C552.448 799.05 552.448 815.702 542.178 825.973C531.907 836.244 515.255 836.244 504.984 825.973C494.714 815.702 494.714 799.05 504.984 788.779C515.255 778.508 531.907 778.508 542.178 788.779Z" fill="#215B80"/>
<path d="M319.016 1160.72C329.286 1150.45 329.286 1133.8 319.015 1123.53C308.745 1113.26 292.093 1113.26 281.822 1123.53C271.551 1133.8 271.551 1150.45 281.822 1160.72C292.093 1170.99 308.745 1170.99 319.016 1160.72Z" fill="#215B80"/>
<path d="M374.809 1216.52C385.08 1206.25 385.08 1189.59 374.809 1179.32C364.539 1169.05 347.887 1169.05 337.616 1179.32C327.345 1189.59 327.345 1206.25 337.616 1216.52C347.887 1226.79 364.539 1226.79 374.809 1216.52Z" fill="#215B80"/>
<path d="M430.597 1235.1C440.867 1245.37 440.867 1262.03 430.597 1272.3C420.326 1282.57 403.674 1282.57 393.403 1272.3C383.133 1262.03 383.133 1245.37 393.403 1235.1C403.674 1224.83 420.326 1224.83 430.597 1235.1Z" fill="#215B80"/>
<path d="M374.808 1104.93C385.078 1094.66 385.078 1078 374.807 1067.73C364.537 1057.46 347.885 1057.46 337.614 1067.73C327.343 1078 327.343 1094.66 337.614 1104.93C347.885 1115.2 364.537 1115.2 374.808 1104.93Z" fill="#215B80"/>
<path d="M430.598 1123.53C440.868 1133.8 440.868 1150.45 430.598 1160.72C420.327 1170.99 403.675 1170.99 393.404 1160.72C383.133 1150.45 383.133 1133.8 393.404 1123.53C403.675 1113.26 420.327 1113.26 430.598 1123.53Z" fill="#215B80"/>
<path d="M486.386 1216.51C496.657 1206.24 496.656 1189.59 486.386 1179.32C476.115 1169.05 459.463 1169.05 449.193 1179.32C438.922 1189.59 438.922 1206.24 449.193 1216.51C459.463 1226.79 476.115 1226.79 486.386 1216.51Z" fill="#215B80"/>
<path d="M430.597 1011.95C440.868 1022.22 440.868 1038.87 430.598 1049.14C420.327 1059.42 403.675 1059.42 393.404 1049.14C383.133 1038.87 383.133 1022.22 393.404 1011.95C403.675 1001.68 420.327 1001.68 430.597 1011.95Z" fill="#215B80"/>
<path d="M486.389 1104.93C496.659 1094.66 496.659 1078.01 486.389 1067.73C476.118 1057.46 459.466 1057.46 449.195 1067.73C438.924 1078.01 438.924 1094.66 449.195 1104.93C459.466 1115.2 476.118 1115.2 486.389 1104.93Z" fill="#215B80"/>
<path d="M542.178 1123.53C552.448 1133.8 552.448 1150.45 542.178 1160.72C531.907 1170.99 515.255 1170.99 504.984 1160.72C494.714 1150.45 494.714 1133.8 504.984 1123.53C515.255 1113.26 531.907 1113.26 542.178 1123.53Z" fill="#215B80"/>
<path d="M486.389 993.346C496.659 983.075 496.659 966.423 486.389 956.152C476.118 945.881 459.466 945.881 449.195 956.152C438.924 966.423 438.924 983.075 449.195 993.346C459.466 1003.62 476.118 1003.62 486.389 993.346Z" fill="#215B80"/>
<path d="M542.182 1049.14C552.453 1038.87 552.453 1022.22 542.182 1011.95C531.912 1001.68 515.26 1001.68 504.989 1011.95C494.718 1022.22 494.718 1038.87 504.989 1049.14C515.26 1059.41 531.912 1059.41 542.182 1049.14Z" fill="#215B80"/>
<path d="M597.97 1067.73C608.24 1078 608.24 1094.65 597.97 1104.92C587.699 1115.19 571.047 1115.19 560.776 1104.92C550.506 1094.65 550.506 1078 560.776 1067.73C571.047 1057.46 587.699 1057.46 597.97 1067.73Z" fill="#215B80"/>
<path d="M542.181 937.553C552.451 927.282 552.451 910.63 542.18 900.359C531.91 890.089 515.258 890.089 504.987 900.359C494.716 910.63 494.716 927.282 504.987 937.553C515.258 947.824 531.91 947.824 542.181 937.553Z" fill="#215B80"/>
<path d="M597.971 956.152C608.241 966.423 608.241 983.075 597.971 993.346C587.7 1003.62 571.048 1003.62 560.777 993.346C550.507 983.075 550.507 966.423 560.777 956.152C571.048 945.881 587.7 945.881 597.971 956.152Z" fill="#215B80"/>
<path d="M653.759 1049.14C664.03 1038.87 664.03 1022.22 653.759 1011.95C643.488 1001.68 626.836 1001.68 616.566 1011.95C606.295 1022.22 606.295 1038.87 616.566 1049.14C626.836 1059.41 643.488 1059.41 653.759 1049.14Z" fill="#215B80"/>
<path d="M597.971 844.576C608.241 854.847 608.241 871.499 597.971 881.77C587.7 892.041 571.048 892.041 560.777 881.77C550.507 871.499 550.507 854.847 560.777 844.576C571.048 834.305 587.7 834.305 597.971 844.576Z" fill="#215B80"/>
<path d="M653.762 937.554C664.032 927.283 664.032 910.631 653.762 900.36C643.491 890.09 626.839 890.09 616.568 900.36C606.298 910.631 606.298 927.283 616.568 937.554C626.839 947.825 643.491 947.825 653.762 937.554Z" fill="#215B80"/>
<path d="M709.551 956.154C719.821 966.424 719.822 983.077 709.551 993.347C699.28 1003.62 682.628 1003.62 672.357 993.347C662.087 983.077 662.087 966.424 672.357 956.154C682.628 945.883 699.28 945.883 709.551 956.154Z" fill="#215B80"/>
<path d="M151.642 286.654C161.913 296.924 161.913 313.576 151.643 323.847C141.372 334.118 124.72 334.118 114.449 323.847C104.178 313.576 104.178 296.924 114.449 286.653C124.72 276.383 141.372 276.383 151.642 286.654Z" fill="#215B80"/>
<path d="M207.436 342.45C217.707 352.72 217.707 369.373 207.436 379.643C197.166 389.914 180.514 389.914 170.243 379.643C159.972 369.372 159.972 352.72 170.243 342.449C180.514 332.179 197.166 332.179 207.436 342.45Z" fill="#215B80"/>
<path d="M263.224 435.424C273.494 425.153 273.494 408.501 263.224 398.23C252.953 387.959 236.301 387.959 226.03 398.23C215.76 408.501 215.76 425.153 226.03 435.424C236.301 445.695 252.953 445.695 263.224 435.424Z" fill="#215B80"/>
<path d="M207.434 230.861C217.705 241.132 217.705 257.784 207.435 268.055C197.164 278.326 180.512 278.326 170.241 268.055C159.97 257.784 159.97 241.132 170.241 230.861C180.512 220.59 197.164 220.59 207.434 230.861Z" fill="#215B80"/>
<path d="M263.225 323.847C273.495 313.576 273.495 296.924 263.225 286.654C252.954 276.383 236.302 276.383 226.031 286.653C215.76 296.924 215.76 313.576 226.031 323.847C236.302 334.118 252.954 334.118 263.225 323.847Z" fill="#215B80"/>
<path d="M319.013 342.448C329.284 352.719 329.284 369.371 319.013 379.641C308.742 389.912 292.09 389.912 281.819 379.641C271.549 369.371 271.549 352.719 281.82 342.448C292.09 332.177 308.742 332.177 319.013 342.448Z" fill="#215B80"/>
<path d="M263.225 212.271C273.495 202.001 273.495 185.348 263.225 175.078C252.954 164.807 236.302 164.807 226.031 175.078C215.76 185.348 215.76 202.001 226.031 212.271C236.302 222.542 252.954 222.542 263.225 212.271Z" fill="#215B80"/>
<path d="M319.016 230.862C329.286 241.133 329.286 257.785 319.016 268.056C308.745 278.327 292.093 278.326 281.822 268.056C271.552 257.785 271.551 241.133 281.822 230.862C292.093 220.591 308.745 220.591 319.016 230.862Z" fill="#215B80"/>
<path d="M374.805 323.849C385.076 313.578 385.075 296.926 374.805 286.655C364.534 276.385 347.882 276.385 337.612 286.655C327.341 296.926 327.341 313.578 337.611 323.849C347.882 334.12 364.534 334.12 374.805 323.849Z" fill="#215B80"/>
<path d="M319.016 119.279C329.286 129.55 329.286 146.202 319.016 156.473C308.745 166.743 292.093 166.743 281.822 156.473C271.552 146.202 271.551 129.55 281.822 119.279C292.093 109.008 308.745 109.008 319.016 119.279Z" fill="#215B80"/>
<path d="M374.809 175.075C385.08 185.346 385.08 201.998 374.809 212.269C364.539 222.54 347.887 222.539 337.616 212.269C327.345 201.998 327.345 185.346 337.616 175.075C347.887 164.804 364.539 164.804 374.809 175.075Z" fill="#215B80"/>
<path d="M430.597 268.049C440.867 257.779 440.867 241.126 430.597 230.856C420.326 220.585 403.674 220.585 393.403 230.855C383.133 241.126 383.133 257.779 393.403 268.049C403.674 278.32 420.326 278.32 430.597 268.049Z" fill="#215B80"/>
<path d="M374.807 63.4865C385.078 73.7572 385.078 90.4094 374.808 100.68C364.537 110.951 347.885 110.951 337.614 100.68C327.343 90.4094 327.343 73.7572 337.614 63.4863C347.885 53.2157 364.537 53.2157 374.807 63.4865Z" fill="#215B80"/>
<path d="M430.598 156.473C440.868 146.202 440.868 129.55 430.598 119.279C420.327 109.008 403.675 109.008 393.404 119.279C383.133 129.55 383.134 146.202 393.404 156.473C403.675 166.743 420.327 166.743 430.598 156.473Z" fill="#215B80"/>
<path d="M486.386 175.073C496.657 185.344 496.657 201.996 486.386 212.267C476.115 222.538 459.463 222.538 449.193 212.267C438.922 201.996 438.922 185.344 449.193 175.073C459.463 164.802 476.115 164.802 486.386 175.073Z" fill="#215B80"/>
<path d="M430.598 44.8967C440.868 34.626 440.868 17.9739 430.598 7.70313C420.327 -2.56765 403.675 -2.56771 393.404 7.70296C383.133 17.9739 383.134 34.626 393.404 44.8968C403.675 55.1675 420.327 55.1676 430.598 44.8967Z" fill="#215B80"/>
<path d="M486.389 63.4874C496.659 73.7581 496.659 90.4103 486.389 100.681C476.118 110.952 459.466 110.952 449.195 100.681C438.925 90.4103 438.924 73.7581 449.195 63.4872C459.466 53.2166 476.118 53.2166 486.389 63.4874Z" fill="#215B80"/>
<path d="M542.178 156.474C552.449 146.204 552.448 129.552 542.178 119.281C531.907 109.01 515.255 109.01 504.985 119.281C494.714 129.551 494.714 146.204 504.984 156.474C515.255 166.745 531.907 166.745 542.178 156.474Z" fill="#215B80"/>
<path d="M319.015 454.028C329.286 464.299 329.286 480.951 319.016 491.222C308.745 501.493 292.093 501.493 281.822 491.222C271.552 480.951 271.551 464.299 281.822 454.028C292.093 443.757 308.745 443.757 319.015 454.028Z" fill="#215B80"/>
<path d="M374.809 509.824C385.08 520.095 385.08 536.747 374.809 547.018C364.539 557.289 347.887 557.289 337.616 547.018C327.345 536.747 327.345 520.095 337.616 509.824C347.887 499.553 364.539 499.553 374.809 509.824Z" fill="#215B80"/>
<path d="M430.597 602.798C440.867 592.528 440.867 575.876 430.597 565.605C420.326 555.334 403.674 555.334 393.403 565.605C383.133 575.876 383.133 592.528 393.403 602.799C403.674 613.069 420.326 613.069 430.597 602.798Z" fill="#215B80"/>
<path d="M374.807 398.236C385.078 408.506 385.078 425.159 374.808 435.429C364.537 445.7 347.885 445.7 337.614 435.429C327.343 425.159 327.343 408.506 337.614 398.236C347.885 387.965 364.537 387.965 374.807 398.236Z" fill="#215B80"/>
<path d="M430.598 491.222C440.868 480.951 440.868 464.299 430.598 454.028C420.327 443.757 403.675 443.757 393.404 454.028C383.133 464.299 383.133 480.951 393.404 491.222C403.675 501.493 420.327 501.493 430.598 491.222Z" fill="#215B80"/>
<path d="M486.386 509.822C496.656 520.093 496.657 536.745 486.386 547.016C476.115 557.287 459.463 557.287 449.193 547.016C438.922 536.745 438.922 520.093 449.193 509.822C459.463 499.552 476.115 499.552 486.386 509.822Z" fill="#215B80"/>
<path d="M430.598 379.646C440.868 369.375 440.868 352.723 430.598 342.452C420.327 332.182 403.675 332.181 393.404 342.452C383.133 352.723 383.134 369.375 393.404 379.646C403.675 389.917 420.327 389.917 430.598 379.646Z" fill="#215B80"/>
<path d="M486.389 398.237C496.659 408.507 496.659 425.16 486.389 435.43C476.118 445.701 459.466 445.701 449.195 435.43C438.924 425.159 438.924 408.507 449.195 398.236C459.466 387.966 476.118 387.966 486.389 398.237Z" fill="#215B80"/>
<path d="M542.178 491.224C552.449 480.953 552.448 464.301 542.178 454.03C531.907 443.759 515.255 443.759 504.984 454.03C494.714 464.301 494.714 480.953 504.984 491.224C515.255 501.494 531.907 501.494 542.178 491.224Z" fill="#215B80"/>
<path d="M486.389 286.653C496.659 296.924 496.659 313.576 486.389 323.847C476.118 334.118 459.466 334.118 449.195 323.847C438.925 313.576 438.924 296.924 449.195 286.653C459.466 276.383 476.118 276.383 486.389 286.653Z" fill="#215B80"/>
<path d="M542.182 342.45C552.453 352.72 552.453 369.373 542.182 379.643C531.912 389.914 515.26 389.914 504.989 379.643C494.718 369.372 494.718 352.72 504.989 342.449C515.26 332.179 531.912 332.179 542.182 342.45Z" fill="#215B80"/>
<path d="M597.97 435.424C608.24 425.153 608.24 408.501 597.97 398.23C587.699 387.959 571.047 387.959 560.776 398.23C550.506 408.501 550.506 425.153 560.776 435.424C571.047 445.695 587.699 445.695 597.97 435.424Z" fill="#215B80"/>
<path d="M542.18 230.861C552.451 241.132 552.451 257.784 542.181 268.055C531.91 278.326 515.258 278.325 504.987 268.055C494.716 257.784 494.716 241.132 504.987 230.861C515.258 220.59 531.91 220.59 542.18 230.861Z" fill="#215B80"/>
<path d="M597.971 323.847C608.241 313.576 608.241 296.924 597.971 286.654C587.7 276.383 571.048 276.383 560.777 286.653C550.507 296.924 550.507 313.576 560.777 323.847C571.048 334.118 587.7 334.118 597.971 323.847Z" fill="#215B80"/>
<path d="M653.759 342.448C664.03 352.719 664.03 369.371 653.759 379.641C643.488 389.912 626.836 389.912 616.566 379.642C606.295 369.371 606.295 352.719 616.566 342.448C626.836 332.177 643.488 332.177 653.759 342.448Z" fill="#215B80"/>
<path d="M597.971 212.271C608.241 202.001 608.241 185.348 597.971 175.078C587.7 164.807 571.048 164.807 560.777 175.078C550.507 185.348 550.507 202.001 560.777 212.271C571.048 222.542 587.7 222.542 597.971 212.271Z" fill="#215B80"/>
<path d="M653.762 230.862C664.032 241.133 664.032 257.785 653.762 268.056C643.491 278.327 626.839 278.326 616.568 268.056C606.298 257.785 606.298 241.133 616.568 230.862C626.839 220.591 643.491 220.591 653.762 230.862Z" fill="#215B80"/>
<path d="M709.551 323.849C719.822 313.578 719.821 296.926 709.551 286.655C699.28 276.384 682.628 276.384 672.358 286.655C662.087 296.926 662.087 313.578 672.358 323.849C682.628 334.12 699.28 334.12 709.551 323.849Z" fill="#215B80"/>
<path d="M486.389 658.596C496.659 648.326 496.659 631.673 486.389 621.403C476.118 611.132 459.466 611.132 449.195 621.403C438.924 631.673 438.924 648.326 449.195 658.596C459.466 668.867 476.118 668.867 486.389 658.596Z" fill="#215B80"/>
<path d="M542.182 714.392C552.453 704.122 552.453 687.47 542.182 677.199C531.912 666.928 515.26 666.928 504.989 677.199C494.718 687.47 494.718 704.122 504.989 714.392C515.26 724.663 531.912 724.663 542.182 714.392Z" fill="#215B80"/>
<path d="M597.97 732.979C608.24 743.25 608.24 759.902 597.97 770.173C587.699 780.444 571.047 780.444 560.776 770.173C550.506 759.902 550.506 743.25 560.776 732.979C571.047 722.709 587.699 722.709 597.97 732.979Z" fill="#215B80"/>
<path d="M542.181 602.804C552.451 592.533 552.451 575.881 542.18 565.61C531.91 555.339 515.258 555.339 504.987 565.61C494.716 575.881 494.716 592.533 504.987 602.804C515.258 613.075 531.91 613.075 542.181 602.804Z" fill="#215B80"/>
<path d="M597.971 621.403C608.241 631.673 608.241 648.326 597.971 658.596C587.7 668.867 571.048 668.867 560.777 658.596C550.507 648.326 550.507 631.673 560.777 621.403C571.048 611.132 587.7 611.132 597.971 621.403Z" fill="#215B80"/>
<path d="M653.759 714.391C664.03 704.12 664.03 687.468 653.759 677.197C643.488 666.926 626.836 666.926 616.566 677.197C606.295 687.468 606.295 704.12 616.566 714.391C626.836 724.661 643.488 724.661 653.759 714.391Z" fill="#215B80"/>
<path d="M597.971 509.827C608.241 520.098 608.241 536.75 597.971 547.021C587.7 557.291 571.048 557.291 560.777 547.021C550.507 536.75 550.507 520.098 560.777 509.827C571.048 499.556 587.7 499.556 597.971 509.827Z" fill="#215B80"/>
<path d="M653.762 602.805C664.032 592.534 664.032 575.882 653.762 565.611C643.491 555.34 626.839 555.34 616.568 565.611C606.298 575.882 606.298 592.534 616.568 602.805C626.839 613.076 643.491 613.076 653.762 602.805Z" fill="#215B80"/>
<path d="M709.551 621.405C719.821 631.675 719.822 648.327 709.551 658.598C699.28 668.869 682.628 668.869 672.358 658.598C662.087 648.327 662.087 631.675 672.358 621.404C682.628 611.134 699.28 611.134 709.551 621.405Z" fill="#215B80"/>
<path d="M653.762 491.222C664.032 480.951 664.032 464.299 653.762 454.028C643.491 443.757 626.839 443.757 616.568 454.028C606.298 464.299 606.298 480.951 616.568 491.222C626.839 501.493 643.491 501.493 653.762 491.222Z" fill="#215B80"/>
<path d="M709.556 547.018C719.826 536.747 719.826 520.095 709.555 509.824C699.285 499.553 682.633 499.553 672.362 509.824C662.091 520.095 662.091 536.747 672.362 547.018C682.633 557.289 699.285 557.289 709.556 547.018Z" fill="#215B80"/>
<path d="M765.343 565.605C775.613 575.876 775.613 592.528 765.343 602.798C755.072 613.069 738.42 613.069 728.149 602.798C717.879 592.528 717.879 575.876 728.149 565.605C738.42 555.334 755.072 555.334 765.343 565.605Z" fill="#215B80"/>
<path d="M709.554 435.429C719.824 425.159 719.824 408.506 709.553 398.236C699.283 387.965 682.631 387.965 672.36 398.236C662.089 408.506 662.089 425.159 672.36 435.429C682.631 445.7 699.283 445.7 709.554 435.429Z" fill="#215B80"/>
<path d="M765.344 454.028C775.614 464.299 775.614 480.951 765.344 491.222C755.073 501.493 738.421 501.493 728.15 491.222C717.88 480.951 717.88 464.299 728.15 454.028C738.421 443.757 755.073 443.757 765.344 454.028Z" fill="#215B80"/>
<path d="M821.132 547.016C831.403 536.745 831.403 520.093 821.132 509.822C810.861 499.552 794.209 499.552 783.939 509.822C773.668 520.093 773.668 536.745 783.939 547.016C794.209 557.287 810.861 557.287 821.132 547.016Z" fill="#215B80"/>
<path d="M765.344 342.452C775.614 352.723 775.614 369.375 765.344 379.646C755.073 389.917 738.421 389.917 728.15 379.646C717.88 369.375 717.88 352.723 728.15 342.452C738.421 332.181 755.073 332.181 765.344 342.452Z" fill="#215B80"/>
<path d="M821.135 435.43C831.405 425.16 831.405 408.507 821.135 398.237C810.864 387.966 794.212 387.966 783.941 398.236C773.671 408.507 773.671 425.16 783.941 435.43C794.212 445.701 810.864 445.701 821.135 435.43Z" fill="#215B80"/>
<path d="M876.924 454.03C887.194 464.301 887.195 480.953 876.924 491.224C866.653 501.494 850.001 501.494 839.731 491.224C829.46 480.953 829.46 464.301 839.731 454.03C850.001 443.759 866.653 443.759 876.924 454.03Z" fill="#215B80"/>
<path d="M653.762 825.971C664.032 815.7 664.032 799.048 653.762 788.777C643.491 778.506 626.839 778.506 616.568 788.777C606.298 799.048 606.298 815.7 616.568 825.971C626.839 836.242 643.491 836.242 653.762 825.971Z" fill="#215B80"/>
<path d="M709.556 881.767C719.826 871.496 719.826 854.844 709.555 844.573C699.285 834.303 682.633 834.303 672.362 844.573C662.091 854.844 662.091 871.496 672.362 881.767C682.633 892.038 699.285 892.038 709.556 881.767Z" fill="#215B80"/>
<path d="M765.343 900.354C775.613 910.625 775.613 927.277 765.343 937.548C755.072 947.818 738.42 947.818 728.149 937.548C717.879 927.277 717.879 910.625 728.149 900.354C738.42 890.083 755.072 890.083 765.343 900.354Z" fill="#215B80"/>
<path d="M709.554 770.179C719.824 759.908 719.824 743.256 709.553 732.985C699.283 722.714 682.631 722.714 672.36 732.985C662.089 743.256 662.089 759.908 672.36 770.179C682.631 780.449 699.283 780.449 709.554 770.179Z" fill="#215B80"/>
<path d="M765.344 788.777C775.614 799.048 775.614 815.7 765.344 825.971C755.073 836.242 738.421 836.242 728.15 825.971C717.88 815.7 717.88 799.048 728.15 788.777C738.421 778.506 755.073 778.506 765.344 788.777Z" fill="#215B80"/>
<path d="M821.132 881.765C831.403 871.495 831.403 854.842 821.132 844.572C810.861 834.301 794.209 834.301 783.939 844.571C773.668 854.842 773.668 871.494 783.939 881.765C794.209 892.036 810.861 892.036 821.132 881.765Z" fill="#215B80"/>
<path d="M765.344 677.201C775.614 687.472 775.614 704.124 765.344 714.395C755.073 724.666 738.421 724.666 728.15 714.395C717.88 704.124 717.88 687.472 728.15 677.201C738.421 666.931 755.073 666.931 765.344 677.201Z" fill="#215B80"/>
<path d="M821.135 770.179C831.405 759.909 831.405 743.257 821.135 732.986C810.864 722.715 794.212 722.715 783.941 732.986C773.671 743.256 773.671 759.909 783.941 770.18C794.212 780.45 810.864 780.45 821.135 770.179Z" fill="#215B80"/>
<path d="M876.924 788.779C887.194 799.05 887.195 815.702 876.924 825.973C866.653 836.244 850.001 836.244 839.731 825.973C829.46 815.702 829.46 799.05 839.731 788.779C850.001 778.508 866.653 778.508 876.924 788.779Z" fill="#215B80"/>
<path d="M821.135 658.596C831.405 648.326 831.405 631.673 821.135 621.403C810.864 611.132 794.212 611.132 783.941 621.403C773.671 631.673 773.671 648.326 783.941 658.596C794.212 668.867 810.864 668.867 821.135 658.596Z" fill="#215B80"/>
<path d="M876.929 714.392C887.199 704.122 887.199 687.469 876.928 677.199C866.658 666.928 850.006 666.928 839.735 677.199C829.464 687.47 829.464 704.122 839.735 714.393C850.006 724.663 866.658 724.663 876.929 714.392Z" fill="#215B80"/>
<path d="M932.716 732.979C942.986 743.25 942.987 759.902 932.716 770.173C922.445 780.444 905.793 780.444 895.523 770.173C885.252 759.902 885.252 743.25 895.523 732.979C905.793 722.709 922.445 722.709 932.716 732.979Z" fill="#215B80"/>
<path d="M876.927 602.804C887.197 592.533 887.197 575.881 876.927 565.61C866.656 555.339 850.004 555.339 839.733 565.61C829.463 575.881 829.463 592.533 839.733 602.804C850.004 613.075 866.656 613.075 876.927 602.804Z" fill="#215B80"/>
<path d="M932.717 621.403C942.987 631.673 942.987 648.326 932.717 658.596C922.446 668.867 905.794 668.867 895.523 658.596C885.253 648.326 885.253 631.673 895.523 621.403C905.794 611.132 922.446 611.132 932.717 621.403Z" fill="#215B80"/>
<path d="M988.505 714.391C998.776 704.12 998.776 687.468 988.505 677.197C978.234 666.926 961.582 666.926 951.312 677.197C941.041 687.468 941.041 704.12 951.312 714.391C961.582 724.661 978.234 724.661 988.505 714.391Z" fill="#215B80"/>
<path d="M932.717 509.827C942.987 520.098 942.987 536.75 932.717 547.021C922.446 557.291 905.794 557.291 895.523 547.021C885.253 536.75 885.253 520.098 895.523 509.827C905.794 499.556 922.446 499.556 932.717 509.827Z" fill="#215B80"/>
<path d="M988.508 602.805C998.779 592.534 998.778 575.882 988.508 565.611C978.237 555.34 961.585 555.34 951.314 565.611C941.044 575.882 941.044 592.534 951.314 602.805C961.585 613.076 978.237 613.076 988.508 602.805Z" fill="#215B80"/>
<path d="M1044.3 621.405C1054.57 631.675 1054.57 648.327 1044.3 658.598C1034.03 668.869 1017.37 668.869 1007.1 658.598C996.833 648.327 996.833 631.675 1007.1 621.404C1017.37 611.134 1034.03 611.134 1044.3 621.405Z" fill="#215B80"/>
</g>
</svg>
